<?xml version="1.0" encoding="UTF-8" standalone="no"?>
<!DOCTYPE svg PUBLIC "-//W3C//DTD SVG 1.1//EN" "http://www.w3.org/Graphics/SVG/1.1/DTD/svg11.dtd">
<svg width="100%" height="100%" viewBox="0 0 500 500" version="1.1" xmlns="http://www.w3.org/2000/svg" xmlns:xlink="http://www.w3.org/1999/xlink" xml:space="preserve" xmlns:serif="http://www.serif.com/" style="fill-rule:evenodd;clip-rule:evenodd;stroke-linejoin:round;stroke-miterlimit:1.41421;">
    <g transform="matrix(1,0,0,1,-1326,-1173)">
        <g id="Logo" transform="matrix(1,0,0,1,1326,53)">
            <rect x="0" y="1120" width="500" height="500" style="fill:none;"/>
            <g transform="matrix(3.63352,0,0,3.63352,-3238.19,-634.177)">
                <path d="M1010.26,510.318C1011.57,510.596 1012.33,512.032 1011.72,513.298L961.732,599.874C960.925,601.071 959.15,601.181 958.268,599.874L908.283,513.298C907.651,512.002 908.494,510.405 910.016,510.298L1009.99,510.298C1010.08,510.305 1010.17,510.311 1010.26,510.318ZM992.263,538.993L951.355,579.901L960,594.874L992.263,538.993ZM980.077,546.937L947.639,565.665L950.536,576.477L980.077,546.937ZM945.742,570.179L930.769,514.298L913.48,514.298L945.742,570.179ZM971.867,548.79L947.456,555.331L947.456,562.883L971.867,548.79ZM944.956,555.654L944.956,518.198L934.144,515.3L944.956,555.654ZM948.058,553.099L976.313,545.528L955.629,524.844C953.105,534.262 950.582,543.681 948.058,553.099ZM947.456,547.617L953.997,523.207L947.456,519.43L947.456,547.617ZM960.677,527.063L978.547,544.933L985.088,541.157L960.677,527.063ZM954.967,520.88L987.405,539.608L995.321,531.693L954.967,520.88ZM941.952,514.298L997.876,529.272L1006.52,514.298L941.952,514.298Z" style="fill:white;fill-rule:nonzero;"/>
            </g>
        </g>
    </g>
</svg>
